<?xml version="1.0" standalone="no"?>
<!DOCTYPE svg PUBLIC "-//W3C//DTD SVG 20010904//EN"
 "http://www.w3.org/TR/2001/REC-SVG-20010904/DTD/svg10.dtd">
<svg version="1.0" xmlns="http://www.w3.org/2000/svg"
 width="552.000000pt" height="394.000000pt" viewBox="0 0 552.000000 394.000000"
 preserveAspectRatio="xMidYMid meet">

<g transform="translate(0.000000,394.000000) scale(0.100000,-0.100000)"
fill="#007749" stroke="none">
<path fill="#007749" d="M3552 2859 c-67 -73 -106 -146 -120 -226 -10 -53 -8 -54 -42 33 l-10
26 -40 -32 c-56 -44 -78 -75 -95 -133 -45 -153 22 -313 166 -392 l53 -28 -60
59 c-51 50 -64 70 -83 131 -18 55 -22 88 -19 140 4 62 31 144 47 142 3 0 18
-26 33 -57 51 -108 125 -175 236 -213 l56 -19 -56 52 c-105 100 -142 218 -102
334 15 46 54 114 64 114 3 0 13 -21 23 -47 29 -83 107 -174 216 -257 55 -42
102 -76 105 -76 3 0 -13 30 -36 66 -45 72 -59 144 -39 197 14 35 26 34 39 -3
24 -68 177 -257 252 -310 l28 -20 -15 43 c-24 67 -2 198 36 221 5 3 26 -47 46
-111 42 -136 86 -224 150 -306 53 -67 65 -73 181 -87 98 -12 130 -26 168 -70
31 -38 34 -82 6 -127 -28 -46 -53 -56 -131 -51 l-68 4 -6 -35 c-17 -89 -84
-164 -157 -176 -24 -4 -72 -25 -107 -46 -80 -48 -107 -53 -217 -40 -48 6 -89
9 -91 7 -5 -4 137 -61 179 -71 14 -4 36 -17 48 -31 40 -42 111 -59 250 -59 69
0 138 4 153 8 l29 8 -7 -53 c-3 -29 -11 -79 -17 -111 -6 -32 -8 -60 -5 -63 7
-7 114 24 157 46 87 44 170 135 225 244 28 55 35 80 35 128 0 100 -40 154
-158 215 -43 23 -52 32 -47 48 12 37 18 114 11 139 -9 36 -62 94 -108 117 -21
11 -74 24 -118 30 -44 5 -91 14 -104 19 -32 12 -89 87 -132 175 -35 71 -94
282 -94 336 0 16 -2 29 -5 29 -3 0 -30 -18 -59 -40 -59 -43 -91 -82 -108 -130
-5 -17 -14 -30 -19 -28 -14 5 -97 120 -118 163 -11 23 -22 62 -26 88 -4 26
-11 49 -15 52 -4 3 -29 -14 -55 -37 -48 -43 -84 -104 -85 -145 0 -32 -10 -29
-42 11 -48 60 -76 124 -89 201 -6 41 -15 75 -18 74 -3 -1 -34 -32 -69 -70z
m1261 -1085 c111 -57 153 -123 128 -205 -16 -53 -104 -182 -149 -217 -31 -25
-94 -62 -104 -62 -2 0 -3 49 -3 109 0 102 -2 111 -24 135 -26 28 -76 46 -129
46 -18 0 -49 7 -69 15 l-36 15 45 34 c31 24 48 46 56 73 22 72 68 96 172 87
39 -4 84 -16 113 -30z m-427 -205 c23 -22 96 -44 180 -55 30 -3 52 -9 49 -13
-2 -4 -32 -16 -65 -26 -56 -17 -71 -17 -147 -6 -104 15 -165 37 -161 60 3 17
81 61 107 61 8 0 25 -9 37 -21z"/>
<path d="M4505 1638 c-19 -11 -19 -11 0 -19 29 -11 85 -11 85 1 0 11 -33 30
-52 30 -7 0 -22 -6 -33 -12z"/>
<path d="M3930 2177 c3 -3 43 -15 90 -27 115 -29 211 -63 332 -116 55 -25 102
-43 104 -42 2 2 -25 23 -59 46 -110 75 -237 117 -412 137 -33 4 -58 5 -55 2z"/>
<path d="M3954 2030 c10 -19 36 -53 58 -75 22 -22 66 -81 99 -132 82 -127 140
-158 222 -117 39 20 87 64 87 80 0 6 12 15 28 19 43 11 62 34 62 77 0 21 -4
38 -10 38 -5 0 -10 -7 -10 -15 0 -8 -9 -24 -20 -35 -25 -25 -121 -27 -201 -4
-80 23 -225 102 -282 154 l-50 44 17 -34z m281 -215 c0 -49 60 -62 72 -16 3
12 11 17 19 14 11 -4 11 -10 2 -26 -39 -75 -148 -54 -148 28 0 39 6 46 33 36
14 -6 21 -17 22 -36z"/>
<path d="M1538 1904 c-138 -33 -249 -118 -307 -236 -108 -218 -32 -481 172
-602 139 -82 348 -86 519 -9 l58 26 0 218 0 219 -170 0 -170 0 0 -75 0 -75 85
0 85 0 0 -89 0 -89 -31 -11 c-18 -6 -68 -11 -113 -11 -176 0 -293 103 -304
266 -8 132 52 235 166 286 92 41 257 35 356 -13 22 -11 41 -19 43 -19 2 0 3
38 3 86 l0 85 -37 15 c-97 41 -253 53 -355 28z"/>
<path d="M2459 1902 c-176 -46 -300 -184 -331 -369 -24 -142 25 -297 125 -397
118 -119 281 -160 469 -121 109 23 112 26 113 124 1 91 7 86 -75 55 -25 -9
-83 -19 -130 -21 -71 -4 -95 -1 -143 17 -73 28 -121 69 -155 134 -36 71 -38
186 -3 264 65 144 239 200 427 137 41 -14 76 -25 77 -25 2 0 2 37 2 82 l-2 82
-39 18 c-90 39 -230 47 -335 20z"/>
<path d="M510 1460 l0 -440 85 0 85 0 0 160 0 160 180 0 180 0 0 80 0 80 -180
0 -180 0 0 120 0 120 215 0 215 0 0 80 0 80 -300 0 -300 0 0 -440z"/>
<path d="M2980 1627 c0 -155 5 -299 11 -333 32 -174 147 -276 331 -291 182
-15 330 66 389 213 23 57 24 70 27 372 l3 312 -85 0 -85 0 -3 -298 -3 -299
-30 -49 c-43 -69 -98 -96 -186 -92 -85 4 -136 36 -170 105 -23 47 -24 56 -27
341 l-3 292 -85 0 -84 0 0 -273z"/>
</g>
</svg>
